<svg xmlns="http://www.w3.org/2000/svg" width="136" height="36" viewBox="0 0 136 36" fill="none">
  <circle cx="18" cy="18" r="18" fill="#032E32"/>
  <path d="M19.1417 24.8492V18.0351H21.1897L21.4612 15.6368H19.1417L19.1452 14.4364C19.1452 13.8108 19.2085 13.4758 20.1663 13.4758H21.4468V11.0771H19.3984C16.9378 11.0771 16.0719 12.2405 16.0719 14.1972V15.637H14.5381V18.0355H16.0719V24.7526C16.6694 24.8643 17.2872 24.9233 17.9197 24.9233C18.3283 24.9233 18.7365 24.8986 19.1417 24.8492Z" fill="white"/>
  <circle cx="118" cy="18" r="18" fill="#032E32"/>
  <path d="M127 12.7163C126.331 12.9943 125.617 13.1786 124.874 13.268C125.639 12.8356 126.223 12.1561 126.497 11.337C125.784 11.7396 124.996 12.024 124.157 12.1827C123.48 11.5 122.515 11.0771 121.462 11.0771C119.419 11.0771 117.774 12.6471 117.774 14.5717C117.774 14.8486 117.799 15.1149 117.859 15.3684C114.792 15.2267 112.077 13.8347 110.253 11.7141C109.935 12.237 109.748 12.8356 109.748 13.48C109.748 14.6899 110.406 15.7625 111.387 16.3834C110.794 16.3728 110.213 16.2098 109.72 15.9531C109.72 15.9638 109.72 15.9776 109.72 15.9915C109.72 17.6892 110.999 19.0994 112.676 19.4242C112.376 19.502 112.049 19.5393 111.709 19.5393C111.473 19.5393 111.234 19.5265 111.01 19.4796C111.488 20.8632 112.845 21.8803 114.459 21.9134C113.203 22.8432 111.609 23.4034 109.883 23.4034C109.581 23.4034 109.29 23.3906 109 23.3555C110.635 24.3535 112.572 24.9233 114.661 24.9233C121.451 24.9233 125.164 19.5979 125.164 14.9818C125.164 14.8273 125.158 14.6782 125.15 14.5302C125.883 14.0381 126.498 13.4235 127 12.7163Z" fill="white"/>
  <circle cx="68" cy="18" r="18" fill="#032E32"/>
  <path d="M61.0767 12.6855C61.0767 12.2193 61.2404 11.8347 61.5678 11.5317C61.8953 11.2287 62.3209 11.0771 62.8449 11.0771C63.3594 11.0771 63.7757 11.2263 64.0938 11.5247C64.4212 11.8324 64.585 12.2333 64.585 12.7275C64.585 13.1751 64.4259 13.548 64.1078 13.8464C63.7804 14.1541 63.35 14.3079 62.8168 14.3079H62.8028C62.2882 14.3079 61.8719 14.1541 61.5538 13.8464C61.2357 13.5387 61.0767 13.1517 61.0767 12.6855ZM61.2591 24.9233V15.5806H64.3745V24.9233H61.2591ZM66.1006 24.9233H69.216V19.7065C69.216 19.3802 69.2534 19.1284 69.3282 18.9513C69.4592 18.6343 69.658 18.3662 69.9246 18.1471C70.1913 17.928 70.5257 17.8184 70.928 17.8184C71.9758 17.8184 72.4997 18.5224 72.4997 19.9303V24.9233H75.6151V19.5667C75.6151 18.1867 75.2877 17.1401 74.6328 16.4268C73.9779 15.7135 73.1125 15.3569 72.0366 15.3569C70.8298 15.3569 69.8895 15.8744 69.216 16.9093V16.9373H69.2019L69.216 16.9093V15.5806H66.1006C66.1193 15.879 66.1286 16.8067 66.1286 18.3639C66.1286 19.921 66.1193 22.1074 66.1006 24.9233Z" fill="white"/>
</svg>