<svg width="22" height="24" viewBox="0 0 22 24" fill="none" xmlns="http://www.w3.org/2000/svg">
<path d="M10.0736 13.8292C10.0736 12.6764 9.09768 11.7363 7.90108 11.7363C6.70447 11.7363 5.72852 12.6765 5.72852 13.8292C5.72852 14.9819 6.70447 15.9221 7.90108 15.9221C9.10261 15.9221 10.0736 14.9819 10.0736 13.8292ZM7.1164 13.8292C7.1164 13.4135 7.4695 13.0733 7.90108 13.0733C8.33265 13.0733 8.68575 13.4135 8.68575 13.8292C8.68575 14.245 8.33265 14.5851 7.90108 14.5851C7.4695 14.5851 7.1164 14.2497 7.1164 13.8292Z" fill="#1A162E"/>
<path d="M14.1638 11.7393C12.9671 11.7393 11.9912 12.6794 11.9912 13.8321C11.9912 14.9849 12.9672 15.925 14.1638 15.925C15.3604 15.925 16.3363 14.9849 16.3363 13.8321C16.3314 12.6747 15.3604 11.7393 14.1638 11.7393ZM14.1638 14.5833C13.7322 14.5833 13.3791 14.2432 13.3791 13.8274C13.3791 13.4117 13.7322 13.0715 14.1638 13.0715C14.5953 13.0715 14.9484 13.4117 14.9484 13.8274C14.9484 14.2432 14.5953 14.5833 14.1638 14.5833Z" fill="#1A162E"/>
<path d="M11.0002 0C4.93358 0 0 4.75741 0 10.6016C0 13.337 1.07402 15.9166 3.02099 17.8962C4.23724 21.4584 7.35633 24 11 24C14.6437 24 17.763 21.4583 18.979 17.8915C20.926 15.9167 22 13.3323 22 10.5968C22 4.75741 17.0664 0 10.9998 0H11.0002ZM2.48181 14.9102C2.1189 14.2488 1.84425 13.5449 1.6579 12.8126C2.01591 12.6756 2.369 12.5339 2.70739 12.3921C2.53084 13.2047 2.45237 14.041 2.4818 14.9102L2.48181 14.9102ZM12.045 1.38913C11.7948 3.02848 10.2942 7.96069 1.42228 11.4711C0.828884 4.96561 6.75312 0.761082 12.045 1.38913ZM11.0004 22.6675C7.06228 22.6675 3.8549 19.0391 3.8549 14.5793C3.8549 13.5636 4.02654 12.5809 4.34534 11.6503C7.55761 10.0676 9.64166 8.30068 10.9904 6.65657C12.0693 8.05028 14.5558 10.866 17.7583 11.9997C18.0084 12.8265 18.1409 13.691 18.1409 14.5792C18.1409 19.039 14.9384 22.6673 11.0003 22.6673L11.0004 22.6675ZM19.2883 12.3872C19.661 12.4439 20.0386 12.4817 20.4212 12.4817C20.2397 13.3321 19.9357 14.1447 19.5188 14.9101C19.5581 14.0975 19.4698 13.2565 19.2883 12.3873L19.2883 12.3872ZM20.6026 11.1447C16.4095 11.225 12.8146 6.81233 11.8439 5.50398C12.9032 3.88351 13.2857 2.47568 13.4132 1.62998C17.9006 2.79691 20.9021 6.76534 20.6026 11.1448V11.1447Z" fill="#1A162E"/>
<path d="M14.0754 19.5634C14.3893 19.3508 14.4629 18.9351 14.2422 18.6327C14.0215 18.3304 13.5899 18.2595 13.276 18.4721C11.9127 19.3933 10.0785 19.3933 8.71508 18.4721C8.40121 18.2595 7.96964 18.3351 7.74894 18.6327C7.52825 18.9351 7.60672 19.3508 7.91569 19.5634C9.85773 20.8248 12.1627 20.7965 14.0756 19.5634H14.0754Z" fill="#1A162E"/>
</svg>
