<svg width="22" height="22" viewBox="0 0 22 22" fill="none" xmlns="http://www.w3.org/2000/svg">
<path d="M10.9992 11.5896C9.0774 11.5896 7.51445 10.0265 7.51445 8.10488C7.51445 6.18306 9.07755 4.62012 10.9992 4.62012C12.921 4.62012 14.484 6.18322 14.484 8.10488C14.484 8.43666 14.215 8.70577 13.8831 8.70577C13.5513 8.70577 13.2822 8.43682 13.2822 8.10488C13.2822 6.84587 12.2581 5.82173 10.9991 5.82173C9.74004 5.82173 8.71591 6.84587 8.71591 8.10488C8.71591 9.3639 9.74004 10.388 10.9991 10.388C11.3308 10.388 11.5999 10.657 11.5999 10.9889C11.6001 11.3207 11.331 11.5896 10.9992 11.5896Z" fill="#1A162E"/>
<path d="M10.9992 17.3574C9.0774 17.3574 7.51445 15.7943 7.51445 13.8726C7.51445 13.5408 7.7834 13.2717 8.11534 13.2717C8.44711 13.2717 8.71622 13.5407 8.71622 13.8726C8.71622 15.1316 9.74036 16.1558 10.9994 16.1558C12.2584 16.1558 13.2825 15.1316 13.2825 13.8726C13.2825 12.6136 12.2584 11.5895 10.9994 11.5895C10.6676 11.5895 10.3985 11.3205 10.3985 10.9886C10.3985 10.6568 10.6674 10.3877 10.9994 10.3877C12.9212 10.3877 14.4841 11.9508 14.4841 13.8725C14.484 15.7943 12.921 17.3574 10.9992 17.3574Z" fill="#1A162E"/>
<path d="M11.0001 5.82085C10.6683 5.82085 10.3992 5.5519 10.3992 5.21997V2.99053C10.3992 2.65876 10.6682 2.38965 11.0001 2.38965C11.3319 2.38965 11.601 2.6586 11.601 2.99053V5.22108C11.601 5.55193 11.3319 5.82089 11.0001 5.82089V5.82085Z" fill="#1A162E"/>
<path d="M11.0001 19.612C10.6683 19.612 10.3992 19.343 10.3992 19.0111V16.7806C10.3992 16.4488 10.6682 16.1797 11.0001 16.1797C11.3319 16.1797 11.601 16.4486 11.601 16.7806V19.0111C11.601 19.3429 11.3319 19.612 11.0001 19.612Z" fill="#1A162E"/>
<path d="M11 22C4.93449 22 0 17.0647 0 11C0 4.93528 4.93409 0 11 0C17.0659 0 22 4.9341 22 11C22 17.0659 17.0659 22 11 22ZM11 1.20193C5.59726 1.20193 1.20193 5.59726 1.20193 11C1.20193 16.4027 5.59726 20.7981 11 20.7981C16.4027 20.7981 20.7981 16.402 20.7981 11C20.7981 5.59805 16.4027 1.20193 11 1.20193Z" fill="#1A162E"/>
</svg>
